HIERARCHY
ROOT Hips
{
    OFFSET 0.000000 0.000000 0.000000
    CHANNELS 6 Xposition Yposition Zposition Zrotation Xrotation Yrotation
    JOINT Spine
    {
        OFFSET -0.000000 14.517291 0.000000
        CHANNELS 3 Zrotation Xrotation Yrotation
        JOINT Spine1
        {
            OFFSET -0.000000 37.558300 0.000000
            CHANNELS 3 Zrotation Xrotation Yrotation
            JOINT Neck
            {
                OFFSET -0.000000 37.404057 3.400369
                CHANNELS 3 Zrotation Xrotation Yrotation
                JOINT Head
                {
                    OFFSET -0.000000 24.785618 -3.540803
                    CHANNELS 3 Zrotation Xrotation Yrotation
                    End Site
                    {
                        OFFSET -0.000000 35.408028 0.000000
                    }
                }
            }
            JOINT LeftShoulder
            {
                OFFSET 6.992933 33.973492 -0.192664
                CHANNELS 3 Zrotation Xrotation Yrotation
                JOINT LeftArm
                {
                    OFFSET 21.527611 0.000000 0.000000
                    CHANNELS 3 Zrotation Xrotation Yrotation
                    JOINT LeftForeArm
                    {
                        OFFSET 56.353916 0.000000 0.000000
                        CHANNELS 3 Zrotation Xrotation Yrotation
                        JOINT LeftHand
                        {
                            OFFSET 47.774071 0.000000 0.000000
                            CHANNELS 3 Zrotation Xrotation Yrotation
                            End Site
                            {
                                OFFSET 26.556021 0.000000 0.000000
                            }
                        }
                    }
                }
            }
            JOINT RightShoulder
            {
                OFFSET -7.065357 33.973492 -0.192664
                CHANNELS 3 Zrotation Xrotation Yrotation
                JOINT RightArm
                {
                    OFFSET -21.527611 0.000000 0.000000
                    CHANNELS 3 Zrotation Xrotation Yrotation
                    JOINT RightForeArm
                    {
                        OFFSET -56.353916 0.000000 0.000000
                        CHANNELS 3 Zrotation Xrotation Yrotation
                        JOINT RightHand
                        {
                            OFFSET -47.774071 0.000000 0.000000
                            CHANNELS 3 Zrotation Xrotation Yrotation
                            End Site
                            {
                                OFFSET -26.556021 0.000000 0.000000
                            }
                        }
                    }
                }
            }
        }
    }
    JOINT LeftUpLeg
    {
        OFFSET 17.704014 0.000000 0.000000
        CHANNELS 3 Zrotation Xrotation Yrotation
        JOINT LeftLeg
        {
            OFFSET -0.000000 -81.181816 0.000000
            CHANNELS 3 Zrotation Xrotation Yrotation
            JOINT LeftFoot
            {
                OFFSET -0.000000 -62.821102 0.000000
                CHANNELS 3 Zrotation Xrotation Yrotation
                JOINT LeftToeBase
                {
                    OFFSET -0.000000 -11.507608 26.556021
                    CHANNELS 3 Zrotation Xrotation Yrotation
                    End Site
                    {
                        OFFSET -0.000000 0.000000 7.081605
                    }
                }
            }
        }
    }
    JOINT RightUpLeg
    {
        OFFSET -17.704014 0.000000 0.000000
        CHANNELS 3 Zrotation Xrotation Yrotation
        JOINT RightLeg
        {
            OFFSET -0.000000 -81.181816 0.000000
            CHANNELS 3 Zrotation Xrotation Yrotation
            JOINT RightFoot
            {
                OFFSET -0.000000 -62.821102 0.000000
                CHANNELS 3 Zrotation Xrotation Yrotation
                JOINT RightToeBase
                {
                    OFFSET -0.000000 -11.507608 26.556021
                    CHANNELS 3 Zrotation Xrotation Yrotation
                    End Site
                    {
                        OFFSET -0.000000 0.000000 7.081605
                    }
                }
            }
        }
    }
}
MOTION
Frames:    10
Frame Time:    0.008333
2.229121    155.759750    -31.415356    -0.649143    -3.594018    -27.340542    2.711082    -0.391838    2.680686    -0.899730    -0.135466    0.889156    11.038374    1.229543    10.374849    -3.792751    2.718842    8.826406    -0.765107    7.113682    -10.494018    -35.112209    11.333083    -48.843842    44.832260    -43.589191    -43.662659    -15.208664    -25.132990    -25.310102    -4.886252    7.129447    -2.535450    38.018555    12.502653    72.626526    2.554848    -12.351854    100.089935    6.466040    -14.572931    13.503106    14.903602    -19.618919    -1.373419    -14.131078    20.149683    7.185377    -5.285935    2.960186    22.509455    0.000000    0.000000    0.000000    -11.497502    6.904628    -3.391555    8.167539    26.100084    1.100505    1.731241    -25.700027    -21.252611    0.000000    0.000000    0.000000    
2.216166    155.762009    -31.420231    -0.654750    -3.594001    -27.347446    2.714405    -0.387169    2.681715    -0.905489    -0.130951    0.889526    11.043424    1.229677    10.366691    -3.803612    2.709563    8.815631    -0.789747    7.147622    -10.477954    -35.106621    11.549892    -48.763092    44.708305    -43.429256    -43.089611    -15.358762    -25.196404    -25.417345    -4.889621    7.119795    -2.534971    38.009335    12.501731    72.625839    2.535177    -12.381371    100.098709    6.481714    -14.579988    13.468561    14.915701    -19.610525    -1.380407    -14.133555    20.140484    7.194527    -5.291678    2.965152    22.508556    0.000000    0.000000    0.000000    -11.488679    6.901453    -3.386014    8.172847    26.107338    1.090697    1.721778    -25.699959    -21.251116    0.000000    0.000000    0.000000    
2.207833    155.762192    -31.425369    -0.654065    -3.586706    -27.354538    2.719352    -0.386761    2.685178    -0.914333    -0.133949    0.890663    11.025195    1.219711    10.356635    -3.775792    2.710949    8.810026    -0.813717    7.187133    -10.463428    -35.107227    11.759168    -48.683815    44.611977    -43.240814    -42.512253    -15.131249    -25.300941    -25.444351    -4.885762    7.114852    -2.545076    38.015141    12.480489    72.623016    2.545429    -12.353182    100.063583    6.492119    -14.559787    13.488845    14.923968    -19.614401    -1.392882    -14.137882    20.134790    7.206245    -5.278401    2.969691    22.513134    0.000000    0.000000    0.000000    -11.480076    6.885852    -3.406823    8.145976    26.122932    1.111553    1.743020    -25.697035    -21.236528    0.000000    0.000000    0.000000    
2.195097    155.764969    -31.430662    -0.654293    -3.584270    -27.366255    2.717776    -0.383757    2.686058    -0.918427    -0.130912    0.890977    11.016251    1.220628    10.351227    -3.770937    2.694674    8.805764    -0.837157    7.204535    -10.452303    -35.132381    11.994742    -48.560787    44.486656    -43.240368    -42.041595    -15.622331    -25.466612    -25.363834    -4.895481    7.109011    -2.543090    38.025623    12.467217    72.644531    2.533977    -12.352793    100.040863    6.190322    -14.581693    13.450610    14.930615    -19.606983    -1.393916    -14.133529    20.124401    7.216760    -5.301111    2.969765    22.515213    0.000000    0.000000    0.000000    -11.477290    6.878858    -3.385462    8.162730    26.120644    1.111620    1.725670    -25.689106    -21.275452    0.000000    0.000000    0.000000    
2.183400    155.764435    -31.435287    -0.652130    -3.577233    -27.370937    2.718399    -0.390079    2.685995    -0.930761    -0.122874    0.890988    11.041389    1.212442    10.352220    -3.798272    2.698541    8.799394    -0.852601    7.222198    -10.447012    -35.169960    12.193434    -48.456985    44.365448    -43.086803    -41.514736    -15.704759    -25.533110    -25.396992    -4.882957    7.104323    -2.550655    38.006104    12.460982    72.624664    2.569424    -12.344797    100.086723    6.373440    -14.595644    13.460391    14.937755    -19.609976    -1.405712    -14.138274    20.115274    7.224924    -5.326899    2.964787    22.534359    0.000000    0.000000    0.000000    -11.468575    6.868822    -3.400527    8.148132    26.126160    1.107382    1.720324    -25.687063    -21.247583    0.000000    0.000000    0.000000    
2.169974    155.766571    -31.441025    -0.654494    -3.573426    -27.381025    2.720375    -0.383588    2.684832    -0.939395    -0.126148    0.890620    11.025980    1.225089    10.344727    -3.784005    2.667159    8.795617    -0.872361    7.264591    -10.428009    -35.204121    12.362507    -48.363522    44.167336    -42.948395    -41.061214    -15.737420    -25.623240    -25.452953    -4.885002    7.112294    -2.554488    38.014595    12.449534    72.633789    2.564057    -12.349095    100.064377    6.414418    -14.587565    13.465129    14.945978    -19.608728    -1.395290    -14.128835    20.119865    7.210083    -5.329515    2.961279    22.550611    0.000000    0.000000    0.000000    -11.456085    6.860268    -3.385525    8.144531    26.129128    1.076216    1.747283    -25.688688    -21.228113    0.000000    0.000000    0.000000    
2.156282    155.766510    -31.445848    -0.652422    -3.561776    -27.390337    2.717277    -0.395673    2.683463    -0.942734    -0.110572    0.890176    11.015049    1.223381    10.340140    -3.770175    2.646096    8.793134    -0.887185    7.281708    -10.407515    -35.240543    12.563986    -48.271721    44.028896    -42.839672    -40.571201    -15.829368    -25.728706    -25.493605    -4.890105    7.104414    -2.556691    38.029602    12.437187    72.628807    2.577982    -12.341903    100.070694    6.410927    -14.596967    13.472243    14.959256    -19.612112    -1.387610    -14.129456    20.113276    7.212128    -5.325273    2.963127    22.543835    0.000000    0.000000    0.000000    -11.446490    6.844737    -3.384115    8.137926    26.133446    1.078265    1.754787    -25.687857    -21.234491    0.000000    0.000000    0.000000    
2.143680    155.769501    -31.448969    -0.651491    -3.555466    -27.396807    2.710185    -0.391658    2.687897    -0.942201    -0.115346    0.891628    11.028285    1.229340    10.329033    -3.793527    2.631507    8.777065    -0.907776    7.314604    -10.397552    -35.280865    12.731922    -48.164948    43.925106    -42.575954    -40.077984    -15.737780    -25.665586    -25.553183    -4.889102    7.109904    -2.572750    38.020683    12.425649    72.632507    2.575403    -12.345068    100.071907    6.412005    -14.597599    13.463606    14.965079    -19.610245    -1.376882    -14.121451    20.102806    7.210371    -5.338089    2.973383    22.547655    0.000000    0.000000    0.000000    -11.441132    6.838829    -3.395498    8.127521    26.134136    1.099737    1.757572    -25.689455    -21.226366    0.000000    0.000000    0.000000    
2.131461    155.772385    -31.449986    -0.648990    -3.551639    -27.409000    2.710506    -0.400349    2.683732    -0.950782    -0.098579    0.890324    11.020059    1.239166    10.331825    -3.792413    2.601128    8.781214    -0.941666    7.293309    -10.411116    -35.342369    12.884906    -47.969044    43.731739    -42.413879    -39.721855    -15.828901    -25.668901    -25.583500    -4.895399    7.102643    -2.564982    38.011414    12.429123    72.636452    2.547228    -12.376920    100.064682    6.440897    -14.594669    13.432921    14.972506    -19.598701    -1.368308    -14.121670    20.082458    7.221219    -5.337685    2.973562    22.545404    0.000000    0.000000    0.000000    -11.441935    6.832808    -3.395073    8.125154    26.136707    1.086568    1.771407    -25.691019    -21.195034    0.000000    0.000000    0.000000    
2.118177    155.773956    -31.452953    -0.647019    -3.543288    -27.417887    2.701425    -0.405974    2.684215    -0.946044    -0.094829    0.890512    11.011193    1.235288    10.328464    -3.783599    2.603730    8.779695    -0.958738    7.327080    -10.387081    -35.366791    13.069770    -47.886791    43.707298    -42.143085    -39.178951    -15.649420    -25.606918    -25.623049    -4.905721    7.108040    -2.561909    38.012844    12.420490    72.631493    2.549801    -12.394457    100.070160    6.444593    -14.613853    13.452343    14.979723    -19.599016    -1.341857    -14.109774    20.080475    7.217758    -5.329480    2.978074    22.526777    0.000000    0.000000    0.000000    -11.436430    6.824712    -3.405747    8.118003    26.134315    1.093591    1.768902    -25.681545    -21.183216    0.000000    0.000000    0.000000    
